<svg width="212" height="209" viewBox="0 0 212 209" fill="none" xmlns="http://www.w3.org/2000/svg">
<path d="M70.648 5.85599H75.544L98.296 84.768L65.176 204H7.576L70.648 5.85599ZM135.448 168.864H87.352L99.448 124.512H122.488L88.504 5.85599H141.208L204.28 204H145.528L135.448 168.864Z" fill="#6C5E7E"/>
<path d="M70.648 5.85599V0.855993H66.9924L65.8836 4.3394L70.648 5.85599ZM75.544 5.85599L80.3483 4.47081L79.3061 0.855993H75.544V5.85599ZM98.296 84.768L103.114 86.1062L103.492 84.7426L103.1 83.3828L98.296 84.768ZM65.176 204V209H68.9764L69.9936 205.338L65.176 204ZM7.576 204L2.81155 202.483L0.737231 209H7.576V204ZM135.448 168.864L140.254 167.485L139.215 163.864H135.448V168.864ZM87.352 168.864L82.5282 167.548L80.8058 173.864H87.352V168.864ZM99.448 124.512V119.512H95.629L94.6242 123.196L99.448 124.512ZM122.488 124.512V129.512H129.121L127.295 123.135L122.488 124.512ZM88.504 5.85599V0.855993H81.8709L83.6973 7.23268L88.504 5.85599ZM141.208 5.85599L145.972 4.3394L144.864 0.855993H141.208V5.85599ZM204.28 204V209H211.119L209.044 202.483L204.28 204ZM145.528 204L140.722 205.379L141.761 209H145.528V204ZM70.648 10.856H75.544V0.855993H70.648V10.856ZM70.7397 7.24117L93.4917 86.1532L103.1 83.3828L80.3483 4.47081L70.7397 7.24117ZM93.4784 83.4298L60.3584 202.662L69.9936 205.338L103.114 86.1062L93.4784 83.4298ZM65.176 199H7.576V209H65.176V199ZM12.3404 205.517L75.4125 7.37258L65.8836 4.3394L2.81155 202.483L12.3404 205.517ZM135.448 163.864H87.352V173.864H135.448V163.864ZM92.1758 170.18L104.272 125.828L94.6242 123.196L82.5282 167.548L92.1758 170.18ZM99.448 129.512H122.488V119.512H99.448V129.512ZM127.295 123.135L93.3107 4.47931L83.6973 7.23268L117.681 125.889L127.295 123.135ZM88.504 10.856H141.208V0.855993H88.504V10.856ZM136.444 7.37258L199.516 205.517L209.044 202.483L145.972 4.3394L136.444 7.37258ZM204.28 199H145.528V209H204.28V199ZM150.334 202.621L140.254 167.485L130.642 170.243L140.722 205.379L150.334 202.621Z" fill="#1F1926"/>
</svg>
